<?xml version="1.0" encoding="utf-8"?>
<!-- Generator: Adobe Illustrator 26.0.2, SVG Export Plug-In . SVG Version: 6.00 Build 0)  -->
<svg version="1.1" id="Слой_1" xmlns="http://www.w3.org/2000/svg" xmlns:xlink="http://www.w3.org/1999/xlink" x="0px" y="0px"
	 viewBox="0 -10 141.7 49" style="enable-background:new 0 -10 141.7 49;" xml:space="preserve">
<style type="text/css">
	.st0{fill:#94D357;}
	.st1{fill:#2670CA;}
</style>
<g>
	<g>
		<path class="st0" d="M16.9,14.1c0.1,0,0.3,0.1,0.5,0.2c0.2,0.1,0.5,0.3,1,0.6s0.9,0.7,1.3,1.1c0.4,0.4,0.7,1,1,1.7
			c0.3,0.7,0.5,1.5,0.5,2.4c0,1.9-0.8,3.6-2.4,5C17.1,26.3,15,27,12.3,27c-1.1,0-2.2-0.1-3.2-0.4c-1-0.3-1.9-0.6-2.5-0.9
			S5.4,25,4.9,24.6C4.4,24.3,4,24,3.8,23.7l-0.3-0.4l3-3.2c0,0.1,0.1,0.2,0.2,0.3C6.8,20.5,7,20.7,7.4,21c0.3,0.3,0.7,0.5,1.1,0.8
			c0.4,0.2,0.9,0.4,1.5,0.6c0.6,0.2,1.2,0.3,1.9,0.3c1.3,0,2.3-0.3,3-0.9s1-1.3,1-2.2s-0.3-1.6-1-2.2c-0.7-0.6-1.6-0.9-2.8-0.9H9.5
			v-4.2h2.3c1,0,1.8-0.3,2.3-0.8c0.6-0.5,0.9-1.2,0.9-2.1c0-0.8-0.3-1.4-0.9-1.9c-0.6-0.5-1.3-0.8-2.3-0.8c-0.9,0-1.7,0.2-2.4,0.6
			C8.7,7.8,8.1,8.2,7.8,8.5L7.3,9.1l-3-3C4.4,6,4.5,5.8,4.6,5.7C4.7,5.5,5,5.2,5.5,4.8c0.5-0.4,1-0.8,1.6-1.1
			c0.6-0.3,1.3-0.6,2.3-0.8c0.9-0.3,1.9-0.4,2.9-0.4c2.4,0,4.3,0.6,5.7,1.9c1.4,1.3,2.2,2.8,2.2,4.7c0,0.7-0.1,1.3-0.4,1.9
			c-0.2,0.6-0.5,1.1-0.8,1.4c-0.3,0.4-0.6,0.7-1,0.9c-0.3,0.3-0.6,0.4-0.9,0.5L16.9,14.1z"/>
	</g>
	<path class="st1" d="M45.8,23.1c0,1.9-1.5,3.4-3.4,3.4c-1.9,0-3.4-1.5-3.4-3.4c0-1.9,1.5-3.4,3.4-3.4
		C44.3,19.7,45.8,21.2,45.8,23.1"/>
	<path class="st0" d="M34.8,20L34.8,20l-6.9,0v-4.7h6.8v-7h4.7v7l0,0h6.8c0-0.2,0-0.4,0-0.5c0-6.7-5.5-12.2-12.2-12.2
		c-6.7,0-12.2,5.5-12.2,12.2c0,6.7,5.5,12.2,12.2,12.2c0.2,0,0.4,0,0.7,0V20z"/>
	<path class="st1" d="M109.2,18.7c-0.1,0.2-0.2,0.4-0.4,0.5c-0.5,0.5-1.1,0.7-1.8,0.7c-0.7,0-1.3-0.2-1.8-0.7
		c-0.5-0.5-0.7-1.1-0.7-1.8c0-0.7,0.2-1.3,0.7-1.8c0.5-0.5,1.1-0.7,1.8-0.7c0.7,0,1.3,0.2,1.8,0.7c0.2,0.1,0.3,0.3,0.4,0.5l1.7-1.7
		c-0.1-0.2-0.3-0.3-0.4-0.5c-1-1-2.2-1.5-3.6-1.5c-1.4,0-2.6,0.5-3.6,1.5c-1,1-1.5,2.2-1.5,3.5c0,1.3,0.5,2.5,1.5,3.5
		c1,1,2.2,1.5,3.6,1.5c1.4,0,2.6-0.5,3.6-1.5c0.2-0.1,0.3-0.3,0.4-0.5L109.2,18.7z"/>
	<path class="st1" d="M77.8,20.9c-1,1-2.2,1.5-3.6,1.5c-1.4,0-2.6-0.5-3.6-1.5c-1-1-1.5-2.2-1.5-3.5c0-1.3,0.5-2.5,1.5-3.5
		c1-1,2.2-1.5,3.6-1.5c1.4,0,2.6,0.5,3.6,1.5c1,1,1.5,2.2,1.5,3.5C79.3,18.8,78.8,19.9,77.8,20.9 M72.6,19.3c0.5,0.5,1,0.7,1.6,0.7
		c0.6,0,1.2-0.2,1.6-0.7c0.5-0.5,0.7-1.1,0.7-1.8c0-0.7-0.2-1.3-0.7-1.8c-0.5-0.5-1-0.7-1.6-0.7c-0.6,0-1.2,0.2-1.6,0.7
		c-0.5,0.5-0.7,1.1-0.7,1.8C71.9,18.2,72.1,18.8,72.6,19.3"/>
	<polygon class="st1" points="100.3,12.7 100.3,22.2 97.7,22.2 97.7,17 93.3,22.2 91.2,22.2 91.2,12.7 93.9,12.7 93.9,17.9 
		98.2,12.7 	"/>
	<polygon class="st1" points="125.8,22.2 123.2,22.2 123.2,12.7 125.8,12.7 125.8,16.3 129.4,16.3 129.4,12.7 132,12.7 132,22.2 
		129.4,22.2 129.4,18.6 125.8,18.6 	"/>
	<path class="st1" d="M121.5,17.3c0-1.3-0.5-2.4-1.5-3.3c-1-1-2.2-1.5-3.6-1.5c-1.4,0-2.6,0.5-3.6,1.5c-1,1-1.5,2.2-1.5,3.5
		c0,1.3,0.5,2.5,1.5,3.5c1,1,2.1,1.5,4,1.3c1.2-0.1,2.1-1.1,2-1.1v1.1h2.6L121.5,17.3L121.5,17.3z M118.1,19.3
		c-0.5,0.5-1,0.7-1.6,0.7h0c-0.6,0-1.2-0.2-1.6-0.7c-0.5-0.5-0.7-1.1-0.7-1.8c0-0.7,0.2-1.3,0.7-1.8c0.5-0.5,1-0.7,1.6-0.7
		c0.6,0,1.2,0.2,1.6,0.7c0.5,0.5,0.7,1.1,0.7,1.8C118.8,18.1,118.5,18.8,118.1,19.3"/>
	<path class="st1" d="M84.3,12.7c-1.9,0-3,1.1-3,3.1c0,1.3-0.1,1.9-0.2,2.6c-0.2,1.3-0.9,1.6-1.3,1.6v2.5c0.6,0,1.7,0,2.5-0.6
		c0.5-0.4,1.6-1.1,1.6-5.6c0,0-0.1-1.1,1.3-1.1h1.6v7.2h2.6v-9.6H84.3z"/>
	<path class="st1" d="M67.8,11.5c-0.1-1.6-1.4-2.8-3-2.9l0,0H57v13.7H60v-11l3.8,0c0.6,0,1.1,0.5,1.1,1.1l0,9.9h2.9L67.8,11.5
		L67.8,11.5z"/>
</g>
</svg>
