<?xml version="1.0" standalone="no"?>
<!DOCTYPE svg PUBLIC "-//W3C//DTD SVG 20010904//EN"
 "http://www.w3.org/TR/2001/REC-SVG-20010904/DTD/svg10.dtd">
<svg version="1.0" xmlns="http://www.w3.org/2000/svg"
 width="768.000000pt" height="768.000000pt" viewBox="0 0 768.000000 768.000000"
 preserveAspectRatio="xMidYMid meet">
<metadata>
Created by potrace 1.14, written by Peter Selinger 2001-2017
</metadata>
<g transform="translate(0.000000,768.000000) scale(0.100000,-0.100000)"
fill="#000000" stroke="none">
<path d="M3539 7676 c-2 -2 -44 -7 -93 -11 -50 -4 -97 -8 -105 -10 -9 -1 -41
-6 -72 -9 -31 -4 -67 -9 -80 -11 -24 -5 -62 -11 -109 -19 -55 -9 -267 -58
-307 -71 -23 -8 -52 -16 -65 -19 -56 -11 -415 -141 -428 -156 -3 -3 -9 -6 -15
-7 -31 -5 -333 -160 -407 -209 -21 -13 -42 -24 -47 -24 -5 0 -16 -6 -23 -13
-7 -7 -31 -24 -53 -37 -22 -13 -42 -26 -45 -30 -3 -3 -36 -27 -75 -53 -121
-83 -194 -140 -319 -247 -160 -137 -420 -418 -553 -597 -97 -130 -103 -141
-90 -151 18 -13 210 -126 227 -133 14 -6 26 6 70 71 8 12 20 28 25 34 6 6 32
40 59 76 27 36 57 72 65 81 9 8 36 40 61 69 87 103 260 271 390 379 41 34 84
69 96 79 11 9 44 33 72 52 29 19 52 38 52 43 0 4 4 7 9 7 6 0 38 19 73 43 35
23 86 56 113 72 28 15 53 33 57 39 4 6 8 7 8 2 0 -5 8 -2 18 6 9 9 33 23 52
32 19 9 53 26 75 39 33 18 136 66 320 147 23 11 252 90 275 95 8 2 49 14 90
25 41 12 86 24 100 27 14 2 63 13 110 23 121 26 217 41 283 44 15 0 27 3 27 6
0 22 689 19 820 -4 14 -2 49 -7 79 -10 30 -4 64 -9 75 -11 12 -3 32 -7 46 -9
221 -39 526 -129 710 -209 19 -9 53 -23 75 -33 62 -26 243 -118 310 -156 33
-19 71 -41 85 -49 14 -8 27 -16 30 -19 3 -3 17 -11 33 -19 15 -8 27 -18 27
-23 0 -4 4 -8 10 -8 14 0 216 -144 294 -210 252 -212 461 -433 616 -650 60
-84 70 -93 85 -80 10 8 166 100 212 125 22 12 22 12 -25 81 -26 38 -49 71 -52
74 -3 3 -41 50 -85 105 -105 133 -126 156 -290 320 -141 141 -162 160 -290
265 -137 113 -376 276 -515 351 -25 13 -47 26 -50 29 -6 6 -240 122 -290 143
-85 37 -161 67 -245 96 -49 18 -97 35 -105 38 -8 3 -19 7 -25 9 -5 1 -59 16
-120 33 -109 30 -227 59 -275 67 -14 2 -38 7 -55 11 -31 6 -39 8 -110 18 -22
3 -51 8 -65 10 -14 3 -52 7 -85 10 -33 3 -73 8 -90 11 -33 6 -571 15 -576 10z"/>
<path d="M3658 6795 c-2 -1 -48 -5 -103 -9 -128 -8 -172 -13 -270 -32 -44 -8
-92 -17 -108 -19 -15 -2 -31 -6 -36 -9 -4 -3 -21 -8 -37 -10 -50 -10 -66 -14
-154 -41 -89 -26 -161 -51 -195 -66 -11 -5 -42 -17 -70 -28 -104 -40 -376
-177 -383 -193 -2 -5 -8 -8 -13 -8 -9 0 -120 -70 -176 -112 -17 -13 -41 -30
-53 -38 -112 -76 -269 -216 -410 -366 -110 -117 -240 -276 -240 -294 0 -8 357
-220 371 -220 4 0 21 17 36 37 103 138 262 299 413 418 41 33 77 62 80 65 15
16 130 90 138 90 6 0 12 4 14 8 9 24 302 172 438 222 74 27 226 75 270 85 8 2
46 10 83 19 37 9 87 18 110 20 23 3 53 8 67 11 114 26 571 27 690 1 8 -1 38
-6 65 -10 151 -24 380 -90 542 -157 111 -47 250 -116 259 -130 3 -5 10 -7 15
-4 5 4 9 1 9 -4 0 -6 5 -11 11 -11 9 0 218 -135 229 -149 3 -3 23 -19 45 -35
61 -45 181 -153 251 -226 97 -101 114 -120 166 -187 28 -35 54 -63 59 -63 5 0
27 11 49 25 22 14 44 25 50 25 5 0 10 5 10 10 0 6 4 10 10 10 5 0 61 32 125
70 64 39 120 70 126 70 13 0 -75 118 -169 227 -101 116 -294 306 -355 348 -12
8 -71 54 -132 103 -24 19 -197 133 -232 153 -113 65 -213 117 -213 112 0 -4
-8 1 -17 9 -17 15 -257 113 -338 138 -22 7 -47 15 -55 18 -23 8 -29 9 -115 32
-113 30 -223 52 -317 65 -21 3 -55 7 -75 10 -90 13 -455 28 -465 20z"/>
<path d="M3572 5749 c-78 -10 -132 -18 -152 -24 -8 -2 -27 -6 -41 -9 -52 -9
-194 -49 -206 -59 -7 -5 -13 -7 -13 -4 0 7 -190 -71 -207 -85 -7 -6 -13 -8
-13 -4 0 3 -23 -8 -50 -24 -28 -17 -53 -30 -55 -30 -3 0 -99 -62 -159 -102
-30 -21 -128 -100 -170 -138 -73 -66 -206 -208 -206 -222 0 -5 296 -180 458
-270 l53 -30 57 56 c31 30 71 65 87 78 17 12 32 25 35 29 23 30 299 179 332
179 8 0 18 4 23 9 12 10 138 42 220 56 17 3 43 8 58 11 32 7 249 7 287 0 14
-2 45 -7 69 -10 83 -12 210 -46 276 -75 112 -48 298 -157 317 -185 4 -6 8 -7
8 -2 0 4 8 -1 18 -11 9 -11 45 -46 79 -78 l62 -57 78 45 c43 24 94 54 113 65
189 107 320 186 320 191 0 11 -126 147 -201 217 -61 56 -161 133 -249 191 -80
53 -300 168 -300 157 0 -3 -6 -2 -12 4 -16 12 -221 80 -267 87 -19 3 -37 8
-41 10 -4 2 -38 9 -76 15 -38 6 -82 13 -99 17 -47 8 -363 10 -433 2z"/>
<path d="M1063 4943 c-41 -109 -54 -144 -55 -153 0 -3 -5 -16 -10 -30 -11 -28
-57 -184 -63 -215 -2 -11 -13 -64 -24 -118 -12 -54 -23 -115 -26 -135 -3 -20
-7 -53 -10 -72 -21 -144 -27 -527 -11 -660 4 -36 9 -83 12 -105 4 -36 15 -102
28 -175 15 -85 50 -226 64 -260 5 -14 10 -28 11 -33 3 -22 14 -65 21 -82 11
-27 22 -58 26 -70 3 -11 44 -120 65 -173 8 -18 18 -31 24 -30 6 2 63 35 128
73 86 51 115 74 111 85 -3 8 -7 20 -8 25 -1 6 -10 27 -19 49 -10 21 -27 69
-38 105 -12 36 -25 75 -29 86 -11 29 -41 134 -46 159 -5 29 -10 53 -23 106 -5
25 -13 68 -16 95 -4 28 -8 61 -11 75 -13 75 -18 175 -19 345 0 231 8 318 50
550 21 112 102 374 146 473 23 51 23 51 -71 105 -36 20 -84 48 -108 62 -23 14
-46 25 -50 25 -5 0 -27 -48 -49 -107z"/>
<path d="M6365 5012 c-33 -20 -77 -46 -97 -56 -20 -11 -46 -27 -58 -36 -23
-17 -24 -11 15 -105 24 -57 86 -248 101 -310 26 -108 51 -240 59 -315 3 -25 8
-63 11 -85 8 -53 12 -467 5 -480 -3 -5 -6 -25 -7 -45 -1 -19 -5 -57 -9 -85 -3
-27 -8 -64 -10 -81 -3 -25 -19 -100 -60 -274 -6 -26 -72 -222 -99 -294 -14
-38 -25 -70 -24 -71 2 -1 37 -22 78 -45 41 -24 83 -50 93 -58 9 -8 17 -11 17
-7 0 4 8 1 18 -7 43 -37 42 -38 109 132 36 90 96 284 103 332 1 4 6 22 11 40
6 18 12 48 15 67 2 19 9 53 14 77 5 23 12 64 15 91 3 26 8 55 10 63 18 65 26
504 12 640 -16 155 -34 279 -47 325 -5 17 -11 44 -14 60 -19 104 -70 275 -126
420 -23 61 -44 118 -47 128 -7 24 -19 21 -88 -21z"/>
<path d="M3757 4584 c-1 -1 -29 -5 -62 -8 -75 -8 -87 -10 -155 -34 -206 -72
-362 -222 -447 -429 -12 -29 -20 -53 -17 -53 3 0 0 -8 -5 -18 -29 -54 -34
-246 -10 -360 32 -145 98 -264 209 -372 199 -195 478 -255 753 -162 214 72
421 303 463 517 2 11 6 33 10 49 16 72 11 207 -10 301 -19 87 -91 237 -136
286 -8 9 -32 35 -54 58 -21 23 -55 54 -75 69 -20 15 -38 29 -41 32 -15 16
-136 73 -191 89 -53 17 -224 42 -232 35z"/>
<path d="M1980 4458 c-12 -40 -25 -84 -30 -98 -67 -200 -91 -587 -50 -819 5
-31 12 -69 14 -86 3 -16 15 -64 26 -105 11 -41 22 -83 25 -94 8 -31 37 -106
42 -106 3 0 32 16 64 35 33 19 64 35 70 35 5 0 9 5 9 10 0 6 4 10 10 10 5 0
30 12 55 28 36 21 45 31 40 47 -22 77 -37 133 -40 150 -3 11 -7 31 -10 45 -20
96 -29 194 -29 330 0 166 18 311 54 430 6 19 13 42 15 50 2 8 6 26 10 40 5 22
1 28 -37 48 -46 24 -95 51 -170 95 l-46 28 -22 -73z"/>
<path d="M5510 4513 c-14 -10 -45 -29 -70 -43 -130 -71 -150 -85 -144 -100 8
-20 52 -187 59 -225 27 -139 28 -464 0 -600 -14 -69 -44 -192 -54 -217 -9 -24
-7 -28 29 -52 22 -14 42 -26 45 -26 4 0 44 -22 90 -49 81 -48 95 -52 95 -25 0
7 5 25 12 41 6 15 12 33 14 38 1 6 10 37 19 70 9 33 18 69 20 80 22 101 28
134 31 160 15 139 18 184 18 285 0 106 -7 219 -18 280 -3 14 -10 53 -16 87
-12 72 -66 267 -81 294 -12 23 -18 24 -49 2z"/>
<path d="M2760 2904 c-44 -26 -200 -116 -270 -156 -182 -105 -189 -109 -183
-125 15 -38 177 -198 299 -296 227 -181 519 -316 794 -367 3 -1 23 -5 45 -10
72 -17 177 -24 330 -24 184 0 267 9 450 49 229 49 552 209 742 367 55 46 206
194 245 241 l40 47 -23 20 c-13 11 -27 19 -31 20 -4 0 -67 35 -140 78 -74 43
-140 81 -148 85 -8 4 -33 18 -55 32 -22 14 -49 30 -60 35 -11 6 -28 15 -37 22
-14 10 -23 6 -56 -27 -79 -80 -172 -153 -262 -204 -30 -18 -62 -36 -70 -41
-41 -24 -212 -90 -250 -96 -14 -3 -34 -8 -45 -11 -26 -9 -29 -10 -160 -29 -35
-6 -259 -5 -285 0 -13 3 -42 8 -65 12 -43 6 -125 25 -190 44 -37 11 -65 23
-165 68 -106 48 -240 142 -347 243 -28 27 -53 49 -55 49 -1 0 -23 -12 -48 -26z"/>
<path d="M1745 2311 c-103 -62 -237 -141 -241 -141 -3 0 -25 -14 -50 -31 l-44
-30 59 -77 c143 -187 368 -417 507 -518 22 -16 46 -35 54 -41 44 -37 79 -63
84 -63 4 0 30 -17 59 -38 29 -21 75 -51 102 -67 28 -15 52 -31 55 -34 6 -7
260 -136 269 -136 3 0 11 -3 16 -7 53 -33 372 -140 490 -164 11 -2 52 -11 90
-20 39 -9 81 -17 95 -19 25 -3 80 -11 135 -20 150 -24 574 -24 715 0 14 2 43
6 65 9 22 4 51 8 65 11 14 2 37 7 53 9 15 3 35 7 45 10 9 3 28 7 42 10 119 23
292 77 440 136 124 49 294 130 298 141 2 5 9 9 16 9 11 0 217 124 261 158 12
9 33 24 45 32 128 85 400 335 526 485 59 69 155 197 152 200 -14 12 -369 215
-376 215 -5 0 -20 -15 -33 -34 -79 -110 -309 -345 -414 -424 -5 -4 -28 -21
-50 -38 -53 -42 -222 -154 -231 -154 -4 0 -15 -6 -23 -14 -23 -19 -223 -118
-311 -153 -114 -46 -114 -46 -125 -49 -5 -1 -29 -9 -52 -18 -24 -8 -43 -13
-43 -11 0 3 -17 -2 -37 -10 -21 -8 -49 -17 -63 -19 -14 -3 -56 -12 -93 -21
-37 -8 -86 -17 -108 -20 -22 -3 -50 -7 -62 -10 -64 -13 -161 -19 -332 -19
-225 -1 -365 12 -535 50 -14 3 -35 7 -47 10 -12 2 -34 9 -48 14 -14 5 -29 9
-33 8 -30 -8 -486 171 -512 201 -3 3 -25 16 -50 29 -79 41 -293 182 -320 212
-3 3 -34 29 -70 59 -111 92 -262 251 -350 365 -19 25 -39 45 -45 45 -5 1 -23
-8 -40 -18z"/>
<path d="M800 1766 c-47 -28 -102 -61 -123 -74 l-39 -22 39 -53 c20 -28 43
-58 50 -65 7 -7 13 -17 13 -22 0 -5 6 -15 13 -22 8 -7 52 -61 98 -118 101
-126 338 -370 446 -460 43 -35 80 -67 83 -70 19 -21 190 -150 198 -150 6 0 12
-4 14 -9 4 -11 203 -142 287 -188 36 -20 68 -40 71 -43 20 -23 530 -251 593
-264 7 -2 19 -6 27 -9 55 -22 340 -101 405 -113 229 -40 312 -54 370 -59 39
-4 81 -9 95 -12 36 -6 593 -12 603 -6 5 3 32 6 61 8 59 3 148 14 256 30 95 15
235 44 315 65 22 6 47 12 56 14 54 13 240 69 269 80 19 8 85 33 145 56 61 24
131 53 157 66 27 14 50 24 53 25 17 0 210 101 330 172 134 79 373 243 455 313
142 121 201 175 300 274 142 142 177 181 282 311 99 124 178 233 178 247 0 8
-113 82 -126 82 -3 0 -25 14 -49 30 -58 40 -75 38 -107 -13 -93 -146 -329
-408 -523 -582 -50 -44 -93 -84 -97 -90 -4 -5 -8 -7 -8 -3 0 4 -10 -3 -23 -15
-76 -72 -275 -209 -462 -319 -61 -36 -303 -155 -385 -190 -268 -112 -604 -205
-845 -233 -16 -2 -43 -6 -60 -9 -160 -28 -593 -34 -780 -11 -28 3 -70 8 -95
11 -25 2 -56 6 -70 9 -14 3 -43 7 -65 10 -64 9 -233 45 -315 67 -41 11 -79 21
-85 23 -5 1 -17 5 -25 8 -8 3 -33 11 -55 17 -53 16 -202 68 -240 85 -16 7 -61
26 -100 43 -78 33 -192 87 -215 101 -8 6 -51 29 -95 54 -104 57 -129 71 -135
77 -3 3 -38 26 -77 50 -40 25 -73 48 -73 52 0 5 -4 8 -10 8 -8 0 -68 42 -120
84 -9 7 -40 32 -70 55 -173 136 -399 362 -540 541 -28 36 -57 73 -65 82 -7 9
-22 29 -32 45 -10 15 -29 40 -43 54 l-25 26 -85 -51z"/>
</g>
</svg>
